<svg xmlns="http://www.w3.org/2000/svg" viewBox="0 0 25.48 25.36"><defs><style>.cls-1{fill:#fff;}</style></defs><title>linkedin</title><g id="Layer_2" data-name="Layer 2"><g id="Layer_1-2" data-name="Layer 1"><path class="cls-1" d="M5.34,25.36V8.59H.16V25.36Zm0-22.72A2.54,2.54,0,0,0,2.69,0,2.55,2.55,0,0,0,0,2.64,2.55,2.55,0,0,0,2.63,5.29h0A2.56,2.56,0,0,0,5.34,2.64ZM13.8,25.36V15.81A3.9,3.9,0,0,1,14,14.42a3.12,3.12,0,0,1,2.92-2.08c2.06,0,3.35,1.17,3.35,3.47v9.55h5.22V15.55c0-5.26-2.81-7.7-6.55-7.7a5.67,5.67,0,0,0-5.17,2.88l0-2.24H8.59c.08,1.6,0,16.87,0,16.87Z"/></g></g></svg>