<svg xmlns="http://www.w3.org/2000/svg" viewBox="0 0 166 82.38"><defs><style>.cls-1{fill:#fff;}</style></defs><title>ivpa</title><g id="Layer_2" data-name="Layer 2"><g id="Layer_1-2" data-name="Layer 1"><g id="Group_22" data-name="Group 22"><path id="Path_17" data-name="Path 17" class="cls-1" d="M107,39h-.23v3.77a1.81,1.81,0,0,0,1.33-.39,2.09,2.09,0,0,0,.38-1.41,2.47,2.47,0,0,0-.36-1.5A1.35,1.35,0,0,0,107,39Z"/><path id="Path_18" data-name="Path 18" class="cls-1" d="M143.53,39.88c-.07.69-.17,1.39-.26,2.1s-.24,1.46-.39,2.25l-.28,1.48h1.83l-.33-1.84Q143.76,42,143.53,39.88Z"/><path id="Path_19" data-name="Path 19" class="cls-1" d="M113.87,39.88q-.12,1-.27,2.1t-.39,2.25l-.28,1.48h1.84l-.34-1.84C114.2,42.63,114,41.3,113.87,39.88Z"/><path id="Path_20" data-name="Path 20" class="cls-1" d="M91,39.88q-.12,1-.27,2.1t-.39,2.25L90,45.71h1.84l-.34-1.84C91.3,42.63,91.12,41.3,91,39.88Z"/><path id="Path_21" data-name="Path 21" class="cls-1" d="M71.18,40a1.59,1.59,0,0,0-.25-.62A.93.93,0,0,0,70.5,39a1.54,1.54,0,0,0-.64-.11H69.6v3.82a1.66,1.66,0,0,0,1.28-.41,2.19,2.19,0,0,0,.37-1.41A4.69,4.69,0,0,0,71.18,40Z"/><path id="Path_22" data-name="Path 22" class="cls-1" d="M21.12,34.67h5.66L27,33.9l-8.8-6.52,10.94.06L32.61,17l3.32,10.47h.8c0-1.48,0-3.24,0-4.68V20h0V10.85a1.83,1.83,0,0,0,0-.52,3.2,3.2,0,0,0-3.13-2.79H26.22V3.28a2.61,2.61,0,0,0-.4-1.44A3.73,3.73,0,0,0,22.45,0c-1.87,0-3.8,0-5.68,0H14.3a3.74,3.74,0,0,0-2.13.6,3.13,3.13,0,0,0-1.65,2.89c0,.77,0,1.53,0,2.3V7.55H3.37a4.44,4.44,0,0,0-.63,0A3.16,3.16,0,0,0,0,10.78c0,6.86,0,13.71,0,20.59a3.15,3.15,0,0,0,0,.53,3.2,3.2,0,0,0,3.22,2.79H15C17,34.67,19.08,34.67,21.12,34.67ZM13.64,3.13h9.5V7.52h-9.5Z"/><path id="Path_23" data-name="Path 23" class="cls-1" d="M166,33.6H51.69L51.44,12h-.69l-.47,0-7.23.15-.25,0h-.43a27.74,27.74,0,0,0-4.51.83v7.32c0,.75,0,2.72,0,7.65v.54l-2.7,0-2.55-8L30,28.5l-8.4-.05,6.75,5-.75,2.29H15l0,1.72-.06,5.66,0,.41v10l0,1.26v0l-.15-.07-.08.11h0l0,.09h-.32l0,0-.1.1h0v0l-.08.15-.07.19,0,.23v0l0,0v0l-.13.21v.07l0,.3,0,0v0l.15.2.13.08,0,.19.07.24,0,.13-.11.19,0,0-.23.22-.2.19-.21.11-.09,0,0,.11,0,.07v0l0,.19,0,.15,0,.13.15.19,0,.07V59l0,0h0l.07,0h.08l0,.1v.09l0,.1.08,0,.07,0,.1,0,0,0,.09.09,0,.08,0,0,.13.15V60l0,.25.07.24v0l-.11.26,0,0,0,.21v0l.4.18.09,0,.19.1,0,0,.13.19,0,0,0,0,0,0,0,.09v0l0,.11L15,62l0,.13v0l-.13.27-.1.09-.13.11v.1l0,.26-.09.2,0,.08.2.11,0,0,.11.08.05.32v.08l-.07.09,0,0,0,.07,0,0,.35.58,0,.21V65l0,.08v0l0,.24,0,0,0,.07,0,0,0,.09,0,0-.11.19,0,.2-.47.49-.18.06-.42.11-.11.15-.2.24,0,0,0,0v0l0,0v.15l0,.13,0,.19,0,.08,0,.07,0,.08V68l0,0,0,0h0l-.08,0,0,.07-.15.3v.13l0,.08,0,0-.13.23.07.34,0,.07,0,.11,0,.08-.09.07v0l-.21.08-.2.18-.3.13L12,70l-.07,0,0,0-.08.13v0l0,.11.1.11.07.12v.07l-.11.09,0,0v0l0,0,0,.15V71l0,0v.09l-.11.15-.07.08,0,0,0,.07,0,.08-.2.26,0,0v0h0L11,72h0l-.09,0v0l0,0-.21.22v0l0,0v0l-.09.22v0l0,0v.3l0,.15-.07.09-.1,0-.11,0-.09,0-.08-.08,0-.07-.14.06H9.86l0,.12,0,.09,0,0h0l0,.07-.09.1H9.56l-.09,0-.08,0,0-.12,0,0-.07-.1-.1,0-.13.07H9l-.13.21,0,.07,0,.1.07.2,0,0,0,.13-.11.13v0l0,0H8.66l-.09.08h0l0,0,0,0v0l0,.09,0,.12v.09l.12.22.22.23.32.22.11.08,0,.09,0,0,0,.08v.13l0,.07-.07.1L9.11,76l0,0L9,76.1l0,0,0,0-.26.08H8.57l-.23.19,0,.08-.09.11v.19l0,.07,0,.08.11.11,0,.13-.08.22-.2.1-.08,0-.15,0,0,.13,0,0,0,.12,0,.11,0,0,0,.22,0,.08L8,78.8V79l-.08.09-.13.19-.09.11,0,0-.12.26v0l.08.19h0l.07.21,0,.13v0l-.12.09-.09.1,0,0,0,0,0,.1,0,.11,0,.19,0,.13,0,0,0,0,.07,0,0,.09,0,.1-.07.09,0,.08,0,.07v.08l0,0v0l0,0,.09,0,.13,0,0,.09.09,0H8l.13,0,.11,0,0,0h0l0,0h0l.11.08,0,.07,0,0,0,0,.12.09v0l.09,0,.07,0,0,0,0,0,0,0L9,82.1l0,0V82l0,0h0l0,0h0l.11,0,.11,0,.08,0,0-.1,0-.07v0l-.08-.33,0-.12-.07-.11-.19-.15L9,80.77l0,0,0,0v0l0,0v-.09l0-.07,0,0,0,0,.07-.09,0,0v0h0l.07-.11,0,0,.19-.22,0,0,.13-.21,0,0h0l.08,0,.07,0h0l.07,0v0l0,0v0h0l0,0,0,.06v0l0,0,.08.15,0,0,.15.13,0,0,0,.07v.09l0,0,0,0h0l0,0h.2l0,0h.37l.08,0,0,0,0,0,0,0,.1-.07,0,0,.13-.08.07,0h.15l.08,0h.09l.09,0h.21l.13-.08h0l.13-.07,0,0h.05v0l0,0h.06v0l.07,0,.08,0,0,0,0,.13v.09l0,.08,0,0,0,0-.07.08,0,0-.1.15V81l0,.09,0,.1,0,0,0,0v0l0,0h0v0h0l0,0h.11l0,0h.25l.11,0h0l.13,0,.11,0,0,.08,0,0h0l.08-.08v0h0l.11-.15,0,0,.07-.09,0-.08h0v-.13l0-.13V80.5l0-.13-.07-.07v0l-.08,0-.09-.07L13.44,80h0l0,0v0h0l0-.09,0,0,0-.08v-.11l0-.11.09-.1.11-.09.08-.09,0-.19,0,0V79l0,0,0-.08.08,0,0,0h.1l0,0,.07,0,0,0,0,.08v.22l0,.13,0,.1,0,.07,0,.08,0,0,0,0,0,0,0,0,0,0,0,0,.21.11h0l.13.07.11.11H15L15,80l.13-.13,0,0,0,0,0,0h0l.15-.13.08,0h0l.15-.1,0,0,0,0h0l.15,0h.43l0,0h.17l0,0,.11,0h0l0,0,.09,0,.11.07h0l0,0v0l.14.13v0h0l0,0,0,0,.11.09,0,0,.09,0h0l.18,0,0,0,.21.1.39.26h0l0,0,0,0h.09l0,.08,0,0,.11.11L19,81l.11,0,.13,0,.32,0,.13,0,.08,0,0,0,0,0,.08.09,0,0v0l.13.24.07.15.08.25,0,.09v0h0v0l.08,0h0l0,0h.13l.13,0,.13,0,.11-.09.08-.08,0,0,0,0,0,0,0,0v0l0-.07.09-.3,0-.13,0-.15,0-.19,0-.09.08-.21,0-.07v0h0v-.15l0,0v-.12l0,0,0,0,0,0v0l0,0h0v0h0l.19-.13,0,0,.11-.08.09,0,.34-.13.13,0h.08l.26,0,.15,0H23l.09,0v0h0l.08,0,.07,0,0,0,0,0,.15-.15v0l.09-.13,0,0,.09-.07.08-.08,0-.09,0,0,.11-.09.1,0,.2-.07.15-.1h.12v0h0l0,0,0,0,0,0,.08.07.07.15,0,.11.08.19,0,.09v0l0,.1,0,0v0l0,.1.07.11,0,0v0l.11.18,0,0v0l.08.11.07.08,0,.07,0,.08,0,0v0l0,0,0,0,.11,0,0,0v0h.05v0l.12-.07.07,0,.15-.13.1-.08.07,0h.13l.13,0,.15,0v0l0,0h0v0h0v.22l0,.15-.13.3,0,.12v.22l0,.1h0l0,0h.08l.13,0H27l.1,0,.15-.11.07,0,.08,0,.09-.15,0,0h0l0-.08,0-.09v-.1l0-.26V80l0-.08,0,0h0l.09-.12,0,0h.3l.25.08.07,0h.13l.08,0,0,0h0l.09,0,.09-.07h0v0l0,0h0v-.14l0-.07v0h0l0-.07-.1-.1,0,0,0-.13,0-.11v-.22l0-.3V78.3l0-.12v-.26l0-.18,0,0,0,0,.1,0,.15,0h.26l.11,0,.26-.07.21-.19.07-.11v0l0-.18-.07-.15-.15-.08-.19-.09-.08-.1,0-.09,0-.13v-.1h0l.08-.09.09,0,.25,0h0l0,0,.13.09,0,0,.15.19,0,0,.09,0,0-.11.1-.19.11-.09,0,0,.31,0,.23,0h0l.09-.08,0,0,0-.09v-.13l0-.13v-.05l.09-.11.1,0h0l0,0,.25.15.13.21.09.15v.23l0,.09v0l0,.22v.28l.07.38,0,0,.07.13,0,0,.08.07,0,0,.09.08,0,0,.22.11.12.11.07.09.21.12h.09l0,0,0,0,.07,0h0l.13.1h.19l.13,0,0,0,.11,0,0,0H34l.15,0,.11,0,0,0h0l.11.08h0v0l0,0h0l0,.08h0l0,0,0,0,0,.11.07.11,0,.09,0,0,0,0,0,0,0,0,0,0,0,0,0,0v0h0l0,0H35l0,0h0v0h0v0l0,0v-.1l0-.2v-.06l0-.07v0h0l0,0v0h0l.09,0,.15,0,.13,0h0l0,0,.26,0,.23,0h0l0,0h0l0,0,.11-.07h0l.07-.08,0-.07.07-.1,0-.09,0-.07V77.6l0,0v-.23l0-.13h0l0,0V77l.1-.23,0-.18v-.28l0-.1,0-.41v-.38l.08-.18,0-.13h0l.58-1.77,1.8-1.29H40.3l0-.07,0-.1v-.37l.08-.21v0l0,0v-.08h0l.09-.22v0l0,0v-.11l.19-.3,0,0,.23-.15.15,0,.19,0h.13l.13,0,.09,0,.13,0h0l0,0h0l0,0,.08,0,.09,0,.08,0,0,0h0l.09-.11.11-.19v0l0,0,0-.09v-.11l0,0,0-.11,0,0v0l0,0,0,0,0,0,0,0h0l.22-.12.13-.07.1-.1,0,0,.08-.13v0l0-.1v-.32h0l0-.18L43.13,68,43,67.8v-.07l0,0,0-.08v-.09l0-.37L43,67v-.14l0-.18-.1-.21-.11-.19h0l0,0V66l0-.24,0-.08.09-.11v0L43,65.5l0-.08.14-.07v0l.1,0,.07,0h.12v0h.08l.13,0,.09,0h.19l.15,0,.15,0,0,0,0,0h0v0l.34-.09h.13l.1,0,.18,0h0l.1,0,.13,0,.13.08,0,0,0,.09,0,.08.19.3.07.09h0L46,66h0l.12.08h0l0,0h.43l.13,0,.13-.07.11-.08.07,0,.08-.09.09-.08,0,0,.08,0,.09-.09v0l0-.08,0,0,.07,0h0l.19-.12.07-.07.08,0,.11,0,0,0,.05,0L48.46,64l.22.71h0l.15-.15,0,0h0l0,0,0,0h.38l.2,0h.1l.11,0,.24-.11,0,0,.08,0,.07,0h0l.07,0,0,0,.07,0,.08,0h.09l.15,0,.11,0,.13,0,.15.07h.21l.09,0h0v0l0,0v0l0-.13,0-.09-.15-.23,0-.13v-.09l0-.08.07-.07v0l0,0,0,0h0l0,0,.13-.1.11-.11,0,0,0,0h0V63l0,0v0l0-.09,0-.09v0h0l0,0-.12-.09v0h0l-.08,0,0,0,0,0h-.09l-.15,0h.41l0,0h-.06l0,0v0l0-.07,0-.08,0-.07h0v-.08l0,0,.09-.15.08-.1h0l.09-.11.08-.07,0,0,.08-.08,0,0h0l.09-.1,0,0v0h0l0-.15v-.09L52,61l-.07-.11,0-.08-.12-.09,0-.08v0l-.1-.13-.11-.14,0-.09h0v0h-.09l-.09-.09-.08,0L51.11,60l0,0,0,0,0-.11,0,0v-.09l0-.08.08-.07.22-.13.13-.1.11-.13,0,0,0,0,0,0,0,0,0,0,0,0,0,0,.08-.07.07,0,.08,0V58l0-.64,0-.37V56l0-2.59H166V33.6ZM35,33.17l1.46,4.65-3.92-2.89-3.94,2.83,1.51-4.63-3.91-2.88,4.85,0,1.54-4.63,1.48,4.65,4.85,0Zm25.26,16H59L56.79,37.65h1.53L59,41.9l.11.77.24,1.67c0,.28.08.54.11.77s.06.45.1.64l.07.56c0-.11,0-.23,0-.3s0-.17,0-.23l.2-1.33.26-1.76c0-.17.06-.3.08-.43s0-.26.06-.36l.75-4.25h1.44Zm5.34,0H64V37.65h1.55Zm6.13,0L69.6,43.52v5.64H68V37.65h2a2.65,2.65,0,0,1,1.89.6,3.29,3.29,0,0,1,.79,2.4,4,4,0,0,1-.42,2,1.81,1.81,0,0,1-1.18.93l2.12,5.6H71.72ZM79.46,39H77.71V49.16H76.2V39H74.4V37.65h5.06Zm6.84,7a4.07,4.07,0,0,1-.58,2.55,2.73,2.73,0,0,1-2.1.75,2.44,2.44,0,0,1-2.2-1A5.05,5.05,0,0,1,81,45.78V37.65h1.52v8.13a4,4,0,0,0,.22,1.65.91.91,0,0,0,.92.41,1,1,0,0,0,.9-.35A3.27,3.27,0,0,0,84.78,46V37.65H86.3Zm6.22,3.15-.43-2.25H89.8l-.43,2.25h-1.5l2.52-11.51h1.2l2.47,11.51Zm7.23,0H95.67V37.65h1.55v10.2h2.53Zm9-5.4a5.08,5.08,0,0,1-2,.3v5.11h-1.56V37.67h2.05a2.72,2.72,0,0,1,2.15.75,3.49,3.49,0,0,1,.68,2.38c0,1.52-.45,2.51-1.35,3Zm6.65,5.4L115,46.91H112.7l-.43,2.25h-1.5l2.52-11.51h1.2L117,49.16Zm7-10.16H120.7V49.16h-1.51V39h-1.8V37.65h5V39Zm6.91,10.16h-1.55v-5.7h-2.27v5.7H124V37.65h1.55v4.5h2.27v-4.5h1.55Zm8.59,0h-1.2l-.81-5s0-.09,0-.24-.05-.36-.09-.62l-.15-1.14c0-.1,0-.23-.06-.4s0-.41-.07-.67l0-.47c0,.11,0,.2,0,.3a1.23,1.23,0,0,0,0,.2c0,.34,0,.58-.05.77s0,.3,0,.34l-.15,1.1c0,.27-.05.45-.07.6s0,.23,0,.27l-.84,5H133l-2-11.5h1.5L133.3,43l.13.78c.06.44.11.83.13,1.17l.08,1s0,.09,0,.13,0,.15,0,.25l0-.38c.06-.66.13-1.26.19-1.8s.13-1,.22-1.52l.83-5h1.2l.77,4.83c.11.71.2,1.39.28,2s.15,1.2.19,1.76c.05-.58.11-1.16.16-1.7s.14-1.09.21-1.62l.11-.76.66-4.5H140Zm7.14,0-.44-2.25h-2.28l-.43,2.25h-1.5L143,37.65h1.2l2.47,11.51Zm5.64-4.95v4.95h-1.56V44.21l-2.4-6.56h1.65l.77,2.51c0,.08.05.15.07.25s.06.2.1.3a19.52,19.52,0,0,1,.58,2.28c.09-.62.17-1.05.22-1.29l.25-1,.09-.4.64-2.6h1.61ZM158,48.46a2.48,2.48,0,0,1-1.93.85,2.7,2.7,0,0,1-1.69-.55V47.23a2.65,2.65,0,0,0,1.5.6,1.29,1.29,0,0,0,1-.42,1.63,1.63,0,0,0,.36-1.14,2.3,2.3,0,0,0-.28-1.12,5.12,5.12,0,0,0-.4-.55c-.17-.2-.37-.43-.63-.69s-.72-.73-1-1a5,5,0,0,1-.58-.79,3.35,3.35,0,0,1-.36-1.65,3.11,3.11,0,0,1,.7-2.13,2.43,2.43,0,0,1,1.89-.81,3.3,3.3,0,0,1,1.57.4v1.51a2.25,2.25,0,0,0-1.27-.5,1.25,1.25,0,0,0-1,.43,1.57,1.57,0,0,0-.4,1.09,1.88,1.88,0,0,0,.28,1,5.39,5.39,0,0,0,.47.6c.23.24.49.54.85.88a6.6,6.6,0,0,1,1.29,1.67,3.8,3.8,0,0,1,.34,1.66,3.16,3.16,0,0,1-.73,2.19Z"/></g><g id="Group_25" data-name="Group 25"><g id="Group_23" data-name="Group 23"><path id="Path_24" data-name="Path 24" class="cls-1" d="M58.69,12.65V29H56.2V12.65Z"/><path id="Path_25" data-name="Path 25" class="cls-1" d="M64.43,29V11.55L76.25,23.93V12.65h2.5V30L66.92,17.56V29Z"/><path id="Path_26" data-name="Path 26" class="cls-1" d="M87.91,12.65a9.46,9.46,0,0,1,6,1.59,8.06,8.06,0,0,1,3.13,6.58,7.75,7.75,0,0,1-3.28,6.58,9.32,9.32,0,0,1-6,1.56H84.48V12.65Zm-.92,14h1.07a7.05,7.05,0,0,0,4.33-1.14A6,6,0,0,0,93.27,17a5.63,5.63,0,0,0-.84-.85A7.28,7.28,0,0,0,88.08,15H87v11.6Z"/><path id="Path_27" data-name="Path 27" class="cls-1" d="M104.55,12.65V29h-2.49V12.65Z"/><path id="Path_28" data-name="Path 28" class="cls-1" d="M119.88,25h-7L111.13,29h-2.68l8.11-17.26L124.28,29H121.6Zm-1-2.34-2.42-5.53-2.53,5.53Z"/><path id="Path_29" data-name="Path 29" class="cls-1" d="M128.16,29V11.55L140,23.93V12.65h2.49V30L130.66,17.56V29Z"/><path id="Path_30" data-name="Path 30" class="cls-1" d="M157.81,25h-7L149.06,29h-2.68l8.11-17.26L162.22,29h-2.68Zm-1-2.34-2.42-5.53-2.51,5.53Z"/></g><g id="Group_24" data-name="Group 24"><path id="Path_31" data-name="Path 31" class="cls-1" d="M65.78,69.41h-7L57,73.35H54.35l8.11-17.26,7.72,17.26H67.5Zm-1-2.34-2.42-5.53-2.51,5.53Z"/><path id="Path_32" data-name="Path 32" class="cls-1" d="M83.94,60.87a6.39,6.39,0,0,0-4.43-1.82c-3.54,0-5.94,2.62-5.94,6.2a5.89,5.89,0,0,0,5.65,6.1h.31a6.54,6.54,0,0,0,4.4-1.88v3a8.78,8.78,0,0,1-4.47,1.22,8.2,8.2,0,0,1-5.77-2.24,8,8,0,0,1-2.62-6.17,8.53,8.53,0,0,1,2.62-6.37,8,8,0,0,1,5.89-2.12,7.64,7.64,0,0,1,4.34,1.18v2.93Z"/><path id="Path_33" data-name="Path 33" class="cls-1" d="M96.34,69.41h-7l-1.78,3.94H84.93l8.12-17.26,7.72,17.26H98.09Zm-1-2.34-2.42-5.53-2.51,5.53Z"/><path id="Path_34" data-name="Path 34" class="cls-1" d="M106.22,57.07a9.35,9.35,0,0,1,6,1.59,8,8,0,0,1,3.13,6.58,7.74,7.74,0,0,1-3.28,6.57,9.32,9.32,0,0,1-6,1.56h-3.37V57.07ZM105.28,71h1.07a7.19,7.19,0,0,0,4.33-1.14,6,6,0,0,0,.88-8.49,6.13,6.13,0,0,0-.84-.85,7.27,7.27,0,0,0-4.35-1.12H105.3V71Z"/><path id="Path_35" data-name="Path 35" class="cls-1" d="M127.53,59.41H121v4.12h6.3v2.34H121V71h6.5v2.34h-9V57.05h9Z"/><path id="Path_36" data-name="Path 36" class="cls-1" d="M130.26,73.35l3.43-17.52,5.68,12.65,5.72-12.65,3.07,17.52h-2.55L144,63.53l-4.74,10.59-4.69-10.61-1.7,9.86h-2.56Z"/><path id="Path_37" data-name="Path 37" class="cls-1" d="M154.46,66.32l-5.36-9.25h2.83l3.76,6.52,3.77-6.52h2.83l-5.36,9.25v7.05h-2.49V66.32Z"/></g></g></g></g></svg>