<svg xmlns="http://www.w3.org/2000/svg" viewBox="0 0 256.17 51.1"><defs><style>.cls-1{fill:#fff;}</style></defs><title>learnerhub</title><g id="Layer_2" data-name="Layer 2"><g id="Layer_1-2" data-name="Layer 1"><g id="Group_103" data-name="Group 103"><g id="Group_102" data-name="Group 102"><g id="Group_99" data-name="Group 99"><g id="Group_98" data-name="Group 98"><path id="Path_42" data-name="Path 42" class="cls-1" d="M64.57,14.12h4.19a1,1,0,0,1,1,1v15a1,1,0,0,0,1,1h8.46a1,1,0,0,1,1,1V35a1,1,0,0,1-1,1H64.57a1,1,0,0,1-1-1V15.12a1,1,0,0,1,1-1Z"/><path id="Path_43" data-name="Path 43" class="cls-1" d="M99.57,29.05H87.24a3.42,3.42,0,0,0,1.45,2,4.89,4.89,0,0,0,2.71.7,5.8,5.8,0,0,0,2.11-.34,5.52,5.52,0,0,0,1.17-.64,1,1,0,0,1,1.26.16l1.81,1.88a1,1,0,0,1,0,1.44l0,0a9.67,9.67,0,0,1-6.45,2A11.5,11.5,0,0,1,86,35.19a8.31,8.31,0,0,1-4.73-7.67,8.37,8.37,0,0,1,4.54-7.61,10.65,10.65,0,0,1,9.39-.08,7.92,7.92,0,0,1,3.27,3,8.83,8.83,0,0,1,1.2,4.71S99.63,28.11,99.57,29.05ZM88.32,23.79a3.56,3.56,0,0,0-1.18,2.13h7a3.49,3.49,0,0,0-1.17-2.13,3.78,3.78,0,0,0-4.6,0Z"/><path id="Path_44" data-name="Path 44" class="cls-1" d="M115.63,20.71q2.22,1.92,2.22,5.9V35a1,1,0,0,1-1,1h-3.53a1,1,0,0,1-1-1V33.84q-1.29,2.47-5,2.48a8,8,0,0,1-3.41-.69,5.07,5.07,0,0,1-2.18-1.87,4.94,4.94,0,0,1-.74-2.67,4.36,4.36,0,0,1,1.85-3.74q1.85-1.34,5.7-1.33h3.38q-.15-2.7-3.6-2.7a8.61,8.61,0,0,0-2.47.39,7,7,0,0,0-1.24.51,1,1,0,0,1-1.37-.39l0,0-1.09-2.2a1,1,0,0,1,.46-1.36,12.41,12.41,0,0,1,2.55-.94,16.38,16.38,0,0,1,4.06-.52C112,18.78,114.15,19.43,115.63,20.71Zm-4.85,11.35a2.85,2.85,0,0,0,1.13-1.47V29.12h-2.57c-1.73,0-2.6.57-2.6,1.72a1.5,1.5,0,0,0,.6,1.25,2.56,2.56,0,0,0,1.63.47A3.3,3.3,0,0,0,110.78,32.06Z"/><path id="Path_45" data-name="Path 45" class="cls-1" d="M129.64,19.36a8.4,8.4,0,0,1,2.2-.52,1,1,0,0,1,1.13.9v4.4a9.94,9.94,0,0,0-1.34-.09,3.71,3.71,0,0,0-4.09,3.27,3.62,3.62,0,0,0,0,.93V35a1,1,0,0,1-1,1h-4a1,1,0,0,1-1-1v-15a1,1,0,0,1,1-1h3.66a1,1,0,0,1,1,1v1A5.62,5.62,0,0,1,129.64,19.36Z"/><path id="Path_46" data-name="Path 46" class="cls-1" d="M151.56,20.66q1.92,1.88,1.92,5.67V35a1,1,0,0,1-1,1h-3.94a1,1,0,0,1-1-1V27.3q0-3.47-2.79-3.47a3.17,3.17,0,0,0-2.46,1,4.33,4.33,0,0,0-.92,3V35a1,1,0,0,1-1,1h-4a1,1,0,0,1-1-1v-15a1,1,0,0,1,1-1h4.66v1.84a6.79,6.79,0,0,1,2.38-1.58,8.15,8.15,0,0,1,3-.55A7,7,0,0,1,151.56,20.66Z"/><path id="Path_47" data-name="Path 47" class="cls-1" d="M174.71,29.05H162.37a3.48,3.48,0,0,0,1.46,2,4.85,4.85,0,0,0,2.71.7,5.84,5.84,0,0,0,2.11-.34,6.06,6.06,0,0,0,1.17-.64,1,1,0,0,1,1.25.16l1.81,1.88a1,1,0,0,1,0,1.44l-.06,0a9.65,9.65,0,0,1-6.44,2,11.52,11.52,0,0,1-5.23-1.12,8.31,8.31,0,0,1-4.73-7.67,8.37,8.37,0,0,1,4.54-7.61,10.65,10.65,0,0,1,9.39-.08,7.92,7.92,0,0,1,3.27,3,8.84,8.84,0,0,1,1.21,4.71S174.77,28.11,174.71,29.05Zm-11.26-5.26a3.54,3.54,0,0,0-1.17,2.13h6.95a3.56,3.56,0,0,0-1.18-2.13,3.78,3.78,0,0,0-4.6,0Z"/><path id="Path_48" data-name="Path 48" class="cls-1" d="M185.59,19.36a8.21,8.21,0,0,1,2.2-.52,1,1,0,0,1,1.12.9.34.34,0,0,1,0,.1v4.3a10.2,10.2,0,0,0-1.35-.09,3.69,3.69,0,0,0-4.08,3.27,3.62,3.62,0,0,0,0,.93V35a1,1,0,0,1-1,1h-3.95a1,1,0,0,1-1-1v-15a1,1,0,0,1,1-1h3.66a1,1,0,0,1,1,1v1A5.62,5.62,0,0,1,185.59,19.36Z"/></g></g><g id="Group_101" data-name="Group 101"><g id="Group_100" data-name="Group 100"><path id="Path_49" data-name="Path 49" class="cls-1" d="M211.65,15.12V35a1,1,0,0,1-1,1h-1.13a1,1,0,0,1-1-1V27.27a1,1,0,0,0-1-1H196.94a1,1,0,0,0-1,1V35a1,1,0,0,1-1,1h-1.13a1,1,0,0,1-1-1V15.12a1,1,0,0,1,1-1h1.13a1,1,0,0,1,1,1v7.42a1,1,0,0,0,1,1h10.58a1,1,0,0,0,1-1V15.12a1,1,0,0,1,1-1h1.13a1,1,0,0,1,1,1Z"/><path id="Path_50" data-name="Path 50" class="cls-1" d="M233.25,20.44V35a1,1,0,0,1-1,1h-.84a1,1,0,0,1-1-1v-1.5a6.1,6.1,0,0,1-2.4,2,7.56,7.56,0,0,1-3.24.7,7.22,7.22,0,0,1-5.23-1.83,7.15,7.15,0,0,1-1.91-5.4V20.44a1,1,0,0,1,1-1h1a1,1,0,0,1,1,1v8.2a5.14,5.14,0,0,0,1.16,3.65,4.31,4.31,0,0,0,3.32,1.24,5,5,0,0,0,3.75-1.44A5.68,5.68,0,0,0,230.24,28V20.44a1,1,0,0,1,1-1h1a1,1,0,0,1,1,1Z"/><path id="Path_51" data-name="Path 51" class="cls-1" d="M252.1,20.35a7.69,7.69,0,0,1,3,3,9.61,9.61,0,0,1,0,8.85,7.67,7.67,0,0,1-3,3,8.72,8.72,0,0,1-4.32,1.06,7.7,7.7,0,0,1-3.38-.72,6.41,6.41,0,0,1-2.54-2.1V35a1,1,0,0,1-1,1H240a1,1,0,0,1-1-1V13.81a1,1,0,0,1,1-1h1a1,1,0,0,1,1,1v5.85a1,1,0,0,0,1.57.81,5.7,5.7,0,0,1,.94-.51,7.87,7.87,0,0,1,3.28-.68A8.85,8.85,0,0,1,252.1,20.35Zm-1.71,12.51a5.24,5.24,0,0,0,2-2.07,6.7,6.7,0,0,0,0-6.1,5.21,5.21,0,0,0-2-2.06,6,6,0,0,0-5.71,0,5,5,0,0,0-2,2.06,6.82,6.82,0,0,0,0,6.1,5.24,5.24,0,0,0,2,2.07A5.91,5.91,0,0,0,250.39,32.86Z"/></g></g></g><path id="Path_52" data-name="Path 52" class="cls-1" d="M13,48.83a7.58,7.58,0,1,1-.7-11.34l7.3-7.3a7.61,7.61,0,0,1-.05-9.2l-7.33-7.32a7.61,7.61,0,1,1,1.44-1.44L21,19.54a7.58,7.58,0,0,1,9.12-.08l7.3-7.3a7.59,7.59,0,1,1,1.42,1.45l-7.25,7.25a7.61,7.61,0,0,1,.05,9.3l7.27,7.27a7.59,7.59,0,1,1-1.44,1.43L30.17,31.6a7.59,7.59,0,0,1-9.12,0l-7.33,7.33A7.6,7.6,0,0,1,13,48.83ZM18,7.64A7.59,7.59,0,1,0,25.6.05h0A7.59,7.59,0,0,0,18,7.64ZM33.19,43.47a7.59,7.59,0,1,0-7.59,7.58h0A7.59,7.59,0,0,0,33.19,43.47Zm2.7-17.91A7.59,7.59,0,1,0,43.48,18h0a7.59,7.59,0,0,0-7.58,7.58Zm-20.66,0a7.59,7.59,0,1,0-7.58,7.58h0a7.58,7.58,0,0,0,7.58-7.59Z"/></g></g></g></svg>