<svg xmlns="http://www.w3.org/2000/svg" viewBox="0 0 254.66 85.5"><defs><style>.cls-1{fill:#fff;}</style></defs><title>p1</title><g id="Layer_2" data-name="Layer 2"><g id="Layer_1-2" data-name="Layer 1"><g id="Layer_2-2" data-name="Layer 2-2"><path id="Path_13" data-name="Path 13" class="cls-1" d="M77.71,21.16h-1l-36.27,0c-.84,0-1.19.21-1.4,1.05q-4.71,18.45-9.5,36.87c-1.62,6.25-5.3,19.35-6.94,25.6-.16.64-.07.84.67.83,4.58,0,9.17,0,13.76,0,.63,0,.86-.18,1-.8,1.08-4.3,4.27-15.44,5.38-19.74q4.11-15.81,8.18-31.63c.13-.51.3-.69.85-.69,2.07,0,4.14,0,6.23,0,.56,0,.67.1.52.69Q55.33,47.9,51.52,62.5c-.17.64-.12.88.64.87q6.81,0,13.6,0a1.09,1.09,0,0,0,1.28-1q4-15.55,8.06-31.09C76,28,76.83,24.59,77.71,21.16Z"/><path id="Path_14" data-name="Path 14" class="cls-1" d="M104.6,0h0L90.68,0c-6.05,0-12.17,0-14.5,0h0c-.6,0-.8.22-1,.78L74,5.32l-2.23,8.5c-.15.56-.07.72.5.72h0l7.25,0c2.76,0,5.48,0,6.57,0h.08L73.7,62.62c-.15.57-.07.73.5.73h0l3.21,0h8.14c1.22,0,2.41,0,3.45,0h.06c.62,0,.85-.21,1-.83,2-7.63,14.59-60,15.06-61.78C105.26.22,105.23,0,104.6,0Z"/><path id="Path_15" data-name="Path 15" class="cls-1" d="M6.93,63.35H5.85C4,70.11,1.36,79.61.06,84.66a.83.83,0,0,0,0,.62.65.65,0,0,1-.06.21H15.43c1.81-6.75,4.46-16.25,5.78-21.29a.83.83,0,0,0,0-.62,2.25,2.25,0,0,0,.05-.22Z"/><path id="Path_16" data-name="Path 16" class="cls-1" d="M135.8,29a10.75,10.75,0,0,0-3.73-1.76,18.31,18.31,0,0,0-4.83-.59H115.29V53.22h8.87V46H127a18.09,18.09,0,0,0,4.91-.64,10.8,10.8,0,0,0,3.8-1.87,8.51,8.51,0,0,0,2.47-3.11,9.85,9.85,0,0,0,.88-4.21v-.08a9.27,9.27,0,0,0-.88-4.14A8,8,0,0,0,135.8,29Zm-5.46,7.73a2.51,2.51,0,0,1-1,2.18,4.67,4.67,0,0,1-2.77.74h-2.38V33.77h2.41a4.54,4.54,0,0,1,2.76.73,2.58,2.58,0,0,1,1,2.19Z"/><path id="Path_17" data-name="Path 17" class="cls-1" d="M191.33,35.4l-3.27-8.72h-8.49l7.29,17.13v9.4h8.87V43.7l7.46-17H194.7Z"/><path id="Path_18" data-name="Path 18" class="cls-1" d="M248.51,44.18A9.71,9.71,0,0,0,252.34,41a8.38,8.38,0,0,0,1.4-4.93V36a9.51,9.51,0,0,0-.62-3.54,7.88,7.88,0,0,0-1.82-2.73,9.6,9.6,0,0,0-3.7-2.22,17.66,17.66,0,0,0-5.87-.81H228.79V53.22h8.87V45.63h1.88l5,7.59h10.12Zm-3.6-7.47a2.21,2.21,0,0,1-.91,1.9,4,4,0,0,1-2.5.69h-3.84V34.12h3.87a4.28,4.28,0,0,1,2.46.63,2.15,2.15,0,0,1,.91,1.91Z"/><path id="Path_19" data-name="Path 19" class="cls-1" d="M164.54,26.49l-8,19.14h-6.66v-19H141V53.21h21.73l6.13-16.3L175,53.21h9.52L173.34,26.49Z"/><path id="Path_20" data-name="Path 20" class="cls-1" d="M205.55,53.21h19.76V45.94H214.26V43.05h11.05v-6.4H214.26V34h11.05V26.68H205.55Z"/><path id="Path_21" data-name="Path 21" class="cls-1" d="M134,61.44a14.45,14.45,0,0,0-4.58-2.93,15.87,15.87,0,0,0-11.43,0,14.51,14.51,0,0,0-4.6,3,13.78,13.78,0,0,0-3.08,4.4,13.19,13.19,0,0,0-1.11,5.4v.08a13.38,13.38,0,0,0,4.14,9.78,14.47,14.47,0,0,0,4.59,2.92,15.79,15.79,0,0,0,11.42,0,14.34,14.34,0,0,0,4.6-3,13.67,13.67,0,0,0,3.08-4.4,13,13,0,0,0,1.11-5.4V71.2A13.38,13.38,0,0,0,134,61.42Zm-4.8,9.94a6.3,6.3,0,0,1-.38,2.23,5.57,5.57,0,0,1-1.1,1.88,5.2,5.2,0,0,1-1.74,1.3,5.11,5.11,0,0,1-2.27.5,5.33,5.33,0,0,1-2.32-.5,5.22,5.22,0,0,1-1.74-1.32,6.37,6.37,0,0,1-1.12-1.92,6.63,6.63,0,0,1-.4-2.25v-.07a6.84,6.84,0,0,1,.38-2.24,5.92,5.92,0,0,1,1.1-1.88,5.7,5.7,0,0,1,1.73-1.31,5.24,5.24,0,0,1,2.27-.49,5.46,5.46,0,0,1,2.32.49,5.53,5.53,0,0,1,1.74,1.33,6.09,6.09,0,0,1,1.12,1.92,6.39,6.39,0,0,1,.4,2.25Z"/><path id="Path_22" data-name="Path 22" class="cls-1" d="M158.33,69.73,148.89,58h-8.3V84.56h8.79V72.31l9.86,12.25h7.89V58h-8.8Z"/><path id="Path_23" data-name="Path 23" class="cls-1" d="M189.92,65.3V58H170.16V84.56h19.76V77.28h-11V74.4h11V68h-11V65.3Z"/><path id="Path_24" data-name="Path 24" class="cls-1" d="M92.79,60a3.45,3.45,0,1,1,3.45,3.45h0A3.46,3.46,0,0,1,92.79,60Zm.52,0a2.94,2.94,0,1,0,.86-2.09A3,3,0,0,0,93.31,60Zm2.86.42h-.69V62h-.55v-4h1.62a1.21,1.21,0,0,1,1.28,1.14.15.15,0,0,1,0,.07,1.16,1.16,0,0,1-1,1.17L97.88,62h-.69Zm-.69-1.91v1.4h1.07a.7.7,0,1,0,0-1.4H95.48Z"/></g></g></g></svg>