<svg xmlns="http://www.w3.org/2000/svg" viewBox="0 0 186.57 38.95"><defs><style>.cls-1{fill:#fff;}</style></defs><title>logo</title><g id="Layer_2" data-name="Layer 2"><g id="Layer_1-2" data-name="Layer 1"><path class="cls-1" d="M10,0q5.28,0,7.75,2.7a9.39,9.39,0,0,1,2.17,6.59V15a8.81,8.81,0,0,1-3.37,7l4.67,17H14.36L10.53,24.27H6.32V39H0V0Zm3.77,9.39Q13.73,6,10.13,6H6.32V18.46h3.81a3.58,3.58,0,0,0,2.55-1,3.19,3.19,0,0,0,1.05-2.4Z"/><polygon class="cls-1" points="23.27 38.95 38.83 38.95 38.83 33.84 28.74 33.84 28.74 24.64 36.11 24.64 36.11 19.52 28.74 19.52 28.74 10.33 38.83 10.33 38.83 5.21 23.27 5.21 23.27 38.95"/><rect class="cls-1" x="40.95" y="5.23" width="5.47" height="33.7"/><path class="cls-1" d="M62.1,21.85l-7.32-6c-.51-.37-1.7-1.56-1.7-2.56,0-1.94,1.25-2.91,2-2.91h9.76V5.55H53.66c-2.64,0-5.59,2.88-5.59,7.65a8.52,8.52,0,0,0,3.83,7.33L59.44,27a5.19,5.19,0,0,1,1.84,3.61c0,2.86-1.69,2.86-2.94,2.86H48.81l0,5.15h11c3.37,0,6.54-2.16,6.54-8.24a10,10,0,0,0-4.19-8.52"/><path class="cls-1" d="M81.23,23.63A4.07,4.07,0,0,0,82,21.25,4.47,4.47,0,0,0,80,17.63l-1.48,1.82a2.25,2.25,0,0,1,1.09,1.8,1.4,1.4,0,0,1-.06.41l-4.41-5.1a7.48,7.48,0,0,1-1.49-2.39,2.19,2.19,0,0,1,2.26-2.09,2.3,2.3,0,0,1,1.71.74l1.87-1.49a4.83,4.83,0,0,0-3.58-1.54,4.56,4.56,0,0,0-4.71,4.38A5.7,5.7,0,0,0,72.4,17a4.84,4.84,0,0,0-3.24,4.28c0,2.71,2.89,4.92,6.44,4.92a7.74,7.74,0,0,0,3.83-1l1.42,1.63,1.91-1.44Zm-5.63.26c-2.16,0-4-1.21-4-2.64,0-1,.94-2,2.32-2.39l3.93,4.54A5.45,5.45,0,0,1,75.6,23.89Z"/><rect class="cls-1" x="89.91" width="6.32" height="38.94"/><path class="cls-1" d="M108.61,5.24c3,0,5.28.78,6.71,2.34a8.1,8.1,0,0,1,1.88,5.7v4.9a7.63,7.63,0,0,1-2.92,6.05l4,14.72h-5.91l-3.32-12.7h-3.64V39H100V5.24Zm3.27,8.13q0-2.94-3.12-2.94h-3.3V21.22h3.3a3.13,3.13,0,0,0,2.21-.86,2.74,2.74,0,0,0,.91-2.07Z"/><polygon class="cls-1" points="125.43 38.95 118.95 5.24 124.69 5.24 129.23 31.51 133.81 5.24 139.54 5.24 132.95 38.95 125.43 38.95"/><polygon class="cls-1" points="149 24.82 141.68 5.21 147.69 5.21 151.74 17.32 155.76 5.21 161.8 5.21 154.46 24.82 154.46 38.95 149 38.95 149 24.82"/><polygon class="cls-1" points="162.16 8.86 166.06 8.86 165.42 14.79 162.81 14.79 162.16 8.86"/><path class="cls-1" d="M178.42,25.75,172,21.21c-.45-.29-1.49-1.18-1.49-1.93,0-1.47,1.09-1.28,1.73-1.28h8.57V13.46H171c-2.32,0-4.9,2.17-4.9,5.77,0,2.93,1.65,4.39,3.36,5.53l6.62,4.87a2.93,2.93,0,0,1,1.61,2.27c0,2.65-1.48,2.51-2.58,2.51h-3.53a45.61,45.61,0,0,1-4.85-.2v4.65c.45.07,4.31.09,4.85.09h4.77c3,0,5.74-2.18,5.74-6.77a7.27,7.27,0,0,0-3.68-6.43"/><path class="cls-1" d="M182.92,3.94a3.92,3.92,0,0,1,1.8.44,3.35,3.35,0,0,1,1.85,3A3.16,3.16,0,0,1,186.08,9a3.32,3.32,0,0,1-1.34,1.26,3.91,3.91,0,0,1-3.64,0A3.32,3.32,0,0,1,179.76,9a3.16,3.16,0,0,1-.49-1.69,3.23,3.23,0,0,1,.5-1.7,3.32,3.32,0,0,1,1.35-1.25,4,4,0,0,1,1.8-.44m0,.67a3.17,3.17,0,0,0-1.44.34,2.63,2.63,0,0,0-1.08,1,2.56,2.56,0,0,0,0,2.73,2.64,2.64,0,0,0,1.08,1,3.12,3.12,0,0,0,2.91,0,2.73,2.73,0,0,0,1.09-1A2.67,2.67,0,0,0,184.37,5a3.19,3.19,0,0,0-1.45-.34m-1.64,4.54V5.55h2a1.65,1.65,0,0,1,.6.14.87.87,0,0,1,.36.35.9.9,0,0,1,.15.51.94.94,0,0,1-.27.67,1.28,1.28,0,0,1-.77.34.84.84,0,0,1,.27.14,1.71,1.71,0,0,1,.26.27l.29.44.45.73h-1l-.32-.59a2.67,2.67,0,0,0-.54-.74.93.93,0,0,0-.54-.15h-.21V9.15Zm.78-2.05h.32a3.53,3.53,0,0,0,.84,0,.48.48,0,0,0,.26-.17.39.39,0,0,0,.1-.27.44.44,0,0,0-.09-.27.47.47,0,0,0-.27-.17,4.29,4.29,0,0,0-.84,0h-.32Z"/></g></g></svg>