<svg xmlns="http://www.w3.org/2000/svg" viewBox="0 0 33.02 22.05"><defs><style>.cls-1{fill:none;stroke:#231f20;stroke-miterlimit:10;stroke-width:3px;}.cls-2{fill:#231f20;}</style></defs><title>rklogo</title><g id="Layer_2" data-name="Layer 2"><g id="Layer_1-2" data-name="Layer 1"><rect class="cls-1" x="1.5" y="1.5" width="30.02" height="19.05"/><path class="cls-2" d="M24.23,7.92c0,1.69-1.82,3.1-2.81,3.35,1.51,2,3,3.84,3,3.84a4.67,4.67,0,0,0,3.42,2,1.42,1.42,0,0,1,0,.77c-.59,0-1.85.08-2.7.08A3.88,3.88,0,0,1,22,16.41l-3.35-4.48s-.21-.31-.37-.31H18V14.8a6.19,6.19,0,0,0,.16,1.94c.11.27,1.06.35,1.33.37a1.13,1.13,0,0,1,0,.77c-.81-.09-2.09-.15-3-.15s-2.11.06-2.91.15a1.08,1.08,0,0,1,0-.77c.27,0,1.22-.1,1.32-.37a4.3,4.3,0,0,0,.17-1.46V7.68a7.74,7.74,0,0,0-.17-2.43c-.1-.26-1.05-.31-1.32-.33a1,1,0,0,1,0-.76c.93.06,2.08.06,2.95.06s2-.06,3.18-.06C22.29,4.16,24.23,5.44,24.23,7.92ZM19.08,5c-.47,0-.93,0-1,.24A4,4,0,0,0,18,6.49v4.32h.95a2.47,2.47,0,0,0,2.25-2.68C21.15,6.49,20.78,5,19.08,5Z"/><path class="cls-2" d="M15,10.81V7.21a6.08,6.08,0,0,0-.16-1.92c-.11-.26-.45-.76-.71-.79-.1-.14.19.16.28,0a19.6,19.6,0,0,0,2-.23c.86,0,1.78.17,2.57.09.08.13-.56.18-.67.32S18.1,5,18,5.29a6.08,6.08,0,0,0-.16,1.92v7.52a8.46,8.46,0,0,0,.09,2.16c.1.27,1.12.39,1.39.41a.46.46,0,0,1,0,.48c-.8-.09-2.06-.15-2.92-.15s-1.72,0-2.52.11c-.08-.12-.25-.27-.14-.42a1.93,1.93,0,0,0,1.09-.67A6.08,6.08,0,0,0,15,14.73V11.62A3.54,3.54,0,0,0,12.85,13,25.91,25.91,0,0,0,10.2,15.9a1,1,0,0,0-.21.67c0,.43.86.47,1.15.47a1.16,1.16,0,0,1,0,.74c-.76-.05-1.9-.15-2.66-.15A21.67,21.67,0,0,0,6,17.78a1.1,1.1,0,0,1,0-.72,4.23,4.23,0,0,0,2.31-.9s2.31-2.35,3.84-4c.12-.15.12-.23.06-.33l-3.68-5a4.61,4.61,0,0,0-3.39-2,1.57,1.57,0,0,1,0-.75c.59,0,1.84-.08,2.68-.08A3.82,3.82,0,0,1,11,5.62c.54.73,2.63,4,3.53,5.19"/></g></g></svg>